<mxfile host="app.diagrams.net" agent="Mozilla/5.0 (Windows NT 10.0; Win64; x64) AppleWebKit/537.36 (KHTML, like Gecko) Chrome/127.0.0.0 Safari/537.36" version="24.7.7">
  <diagram name="Page-1" id="e7e014a7-5840-1c2e-5031-d8a46d1fe8dd">
    <mxGraphModel dx="1311" dy="517" grid="1" gridSize="10" guides="1" tooltips="1" connect="1" arrows="1" fold="1" page="1" pageScale="1" pageWidth="1169" pageHeight="826" background="none" math="0" shadow="0">
      <root>
        <mxCell id="0" />
        <mxCell id="1" parent="0" />
        <mxCell id="2" value="User" style="swimlane;whiteSpace=wrap" parent="1" vertex="1">
          <mxGeometry x="100" y="120" width="320.5" height="660" as="geometry" />
        </mxCell>
        <mxCell id="5" value="" style="ellipse;shape=startState;fillColor=#000000;strokeColor=#ff0000;" parent="2" vertex="1">
          <mxGeometry x="125.5" y="22" width="30" height="30" as="geometry" />
        </mxCell>
        <mxCell id="6" value="" style="edgeStyle=elbowEdgeStyle;elbow=horizontal;verticalAlign=bottom;endArrow=open;endSize=8;strokeColor=#FF0000;endFill=1;rounded=0" parent="2" source="5" edge="1">
          <mxGeometry x="100" y="40" as="geometry">
            <mxPoint x="140.11764705882365" y="92" as="targetPoint" />
          </mxGeometry>
        </mxCell>
        <mxCell id="Qd3Dt6lI25NfpPpPpTcT-52" style="edgeStyle=orthogonalEdgeStyle;rounded=0;orthogonalLoop=1;jettySize=auto;html=1;exitX=0;exitY=0.25;exitDx=0;exitDy=0;" parent="2" source="8" edge="1">
          <mxGeometry relative="1" as="geometry">
            <mxPoint x="35.5" y="312" as="targetPoint" />
          </mxGeometry>
        </mxCell>
        <mxCell id="Qd3Dt6lI25NfpPpPpTcT-68" style="edgeStyle=orthogonalEdgeStyle;rounded=0;orthogonalLoop=1;jettySize=auto;html=1;exitX=0.75;exitY=0;exitDx=0;exitDy=0;" parent="2" source="8" edge="1">
          <mxGeometry relative="1" as="geometry">
            <mxPoint x="167.9411764705883" y="30" as="targetPoint" />
          </mxGeometry>
        </mxCell>
        <mxCell id="Qd3Dt6lI25NfpPpPpTcT-73" style="edgeStyle=orthogonalEdgeStyle;rounded=0;orthogonalLoop=1;jettySize=auto;html=1;exitX=0;exitY=0.5;exitDx=0;exitDy=0;" parent="2" source="8" edge="1">
          <mxGeometry relative="1" as="geometry">
            <mxPoint x="85" y="118.52941176470586" as="targetPoint" />
          </mxGeometry>
        </mxCell>
        <mxCell id="Qd3Dt6lI25NfpPpPpTcT-74" style="edgeStyle=orthogonalEdgeStyle;rounded=0;orthogonalLoop=1;jettySize=auto;html=1;exitX=0;exitY=0.75;exitDx=0;exitDy=0;entryX=0.5;entryY=1;entryDx=0;entryDy=0;" parent="2" source="8" target="Qd3Dt6lI25NfpPpPpTcT-72" edge="1">
          <mxGeometry relative="1" as="geometry" />
        </mxCell>
        <mxCell id="Qd3Dt6lI25NfpPpPpTcT-86" style="edgeStyle=orthogonalEdgeStyle;rounded=0;orthogonalLoop=1;jettySize=auto;html=1;exitX=0;exitY=0.75;exitDx=0;exitDy=0;" parent="2" source="8" edge="1">
          <mxGeometry relative="1" as="geometry">
            <mxPoint x="60" y="560" as="targetPoint" />
          </mxGeometry>
        </mxCell>
        <mxCell id="8" value="user action" style="" parent="2" vertex="1">
          <mxGeometry x="85.5" y="94" width="110" height="50" as="geometry" />
        </mxCell>
        <mxCell id="Qd3Dt6lI25NfpPpPpTcT-67" style="edgeStyle=orthogonalEdgeStyle;rounded=0;orthogonalLoop=1;jettySize=auto;html=1;exitX=0.75;exitY=0;exitDx=0;exitDy=0;entryX=0.75;entryY=1;entryDx=0;entryDy=0;" parent="2" source="10" target="8" edge="1">
          <mxGeometry relative="1" as="geometry" />
        </mxCell>
        <mxCell id="10" value="post resquest" style="" parent="2" vertex="1">
          <mxGeometry x="85.5" y="174" width="110" height="50" as="geometry" />
        </mxCell>
        <mxCell id="11" value="" style="endArrow=open;strokeColor=#FF0000;endFill=1;rounded=0" parent="2" source="8" target="10" edge="1">
          <mxGeometry relative="1" as="geometry" />
        </mxCell>
        <mxCell id="12" value="" style="edgeStyle=elbowEdgeStyle;elbow=horizontal;strokeColor=#FF0000;endArrow=open;endFill=1;rounded=0" parent="2" source="10" edge="1">
          <mxGeometry width="100" height="100" relative="1" as="geometry">
            <mxPoint x="185.5" y="272" as="sourcePoint" />
            <mxPoint x="85.5" y="117" as="targetPoint" />
            <Array as="points">
              <mxPoint x="55.5" y="232" />
            </Array>
          </mxGeometry>
        </mxCell>
        <mxCell id="Qd3Dt6lI25NfpPpPpTcT-53" style="edgeStyle=orthogonalEdgeStyle;rounded=0;orthogonalLoop=1;jettySize=auto;html=1;exitX=0;exitY=0.5;exitDx=0;exitDy=0;shape=link;" parent="2" source="Qd3Dt6lI25NfpPpPpTcT-50" edge="1">
          <mxGeometry relative="1" as="geometry">
            <mxPoint x="35.5" y="292" as="targetPoint" />
          </mxGeometry>
        </mxCell>
        <mxCell id="Qd3Dt6lI25NfpPpPpTcT-70" style="edgeStyle=orthogonalEdgeStyle;rounded=0;orthogonalLoop=1;jettySize=auto;html=1;exitX=0;exitY=1;exitDx=0;exitDy=0;" parent="2" source="Qd3Dt6lI25NfpPpPpTcT-50" edge="1">
          <mxGeometry relative="1" as="geometry">
            <mxPoint x="50" y="30" as="targetPoint" />
          </mxGeometry>
        </mxCell>
        <mxCell id="Qd3Dt6lI25NfpPpPpTcT-50" value="get request" style="" parent="2" vertex="1">
          <mxGeometry x="85" y="302" width="110" height="50" as="geometry" />
        </mxCell>
        <mxCell id="Qd3Dt6lI25NfpPpPpTcT-62" value="response" style="rounded=0;whiteSpace=wrap;html=1;" parent="2" vertex="1">
          <mxGeometry x="210" y="160" width="110" height="20" as="geometry" />
        </mxCell>
        <mxCell id="Qd3Dt6lI25NfpPpPpTcT-71" value="response" style="rounded=0;whiteSpace=wrap;html=1;" parent="2" vertex="1">
          <mxGeometry x="260" y="282" width="110" height="20" as="geometry" />
        </mxCell>
        <mxCell id="Qd3Dt6lI25NfpPpPpTcT-77" style="edgeStyle=orthogonalEdgeStyle;rounded=0;orthogonalLoop=1;jettySize=auto;html=1;exitX=1;exitY=0.5;exitDx=0;exitDy=0;" parent="2" source="Qd3Dt6lI25NfpPpPpTcT-72" edge="1">
          <mxGeometry relative="1" as="geometry">
            <mxPoint x="370" y="425.5882352941177" as="targetPoint" />
          </mxGeometry>
        </mxCell>
        <mxCell id="Qd3Dt6lI25NfpPpPpTcT-72" value="add to cart request" style="" parent="2" vertex="1">
          <mxGeometry x="85.5" y="400" width="110" height="50" as="geometry" />
        </mxCell>
        <mxCell id="Qd3Dt6lI25NfpPpPpTcT-84" value="response" style="rounded=0;whiteSpace=wrap;html=1;" parent="2" vertex="1">
          <mxGeometry x="210" y="440" width="110" height="20" as="geometry" />
        </mxCell>
        <mxCell id="Qd3Dt6lI25NfpPpPpTcT-85" value="remove item from&#xa;cart request" style="" parent="2" vertex="1">
          <mxGeometry x="15.5" y="560" width="110" height="50" as="geometry" />
        </mxCell>
        <mxCell id="Qd3Dt6lI25NfpPpPpTcT-92" value="response" style="rounded=0;whiteSpace=wrap;html=1;" parent="2" vertex="1">
          <mxGeometry x="200" y="550" width="110" height="20" as="geometry" />
        </mxCell>
        <mxCell id="3" value="Application" style="swimlane;whiteSpace=wrap;startSize=23;" parent="1" vertex="1">
          <mxGeometry x="445" y="120" width="305" height="660" as="geometry" />
        </mxCell>
        <mxCell id="13" value="" style="ellipse;shape=startState;fillColor=#000000;strokeColor=#ff0000;" parent="3" vertex="1">
          <mxGeometry x="70.5" y="30" width="30" height="30" as="geometry" />
        </mxCell>
        <mxCell id="Qd3Dt6lI25NfpPpPpTcT-43" style="edgeStyle=orthogonalEdgeStyle;rounded=0;orthogonalLoop=1;jettySize=auto;html=1;exitX=1;exitY=0.5;exitDx=0;exitDy=0;entryX=0;entryY=0.5;entryDx=0;entryDy=0;" parent="3" source="18" target="Qd3Dt6lI25NfpPpPpTcT-42" edge="1">
          <mxGeometry relative="1" as="geometry" />
        </mxCell>
        <mxCell id="Qd3Dt6lI25NfpPpPpTcT-49" style="edgeStyle=orthogonalEdgeStyle;rounded=0;orthogonalLoop=1;jettySize=auto;html=1;exitX=0.5;exitY=1;exitDx=0;exitDy=0;entryX=0.5;entryY=0;entryDx=0;entryDy=0;" parent="3" source="18" target="Qd3Dt6lI25NfpPpPpTcT-45" edge="1">
          <mxGeometry relative="1" as="geometry" />
        </mxCell>
        <mxCell id="18" value="validate data from &#xa;post request" style="" parent="3" vertex="1">
          <mxGeometry x="25.75" y="60" width="110" height="50" as="geometry" />
        </mxCell>
        <mxCell id="19" value="" style="endArrow=open;strokeColor=#FF0000;endFill=1;rounded=0" parent="3" target="18" edge="1">
          <mxGeometry relative="1" as="geometry">
            <mxPoint x="85.5" y="121.99999999999989" as="sourcePoint" />
          </mxGeometry>
        </mxCell>
        <mxCell id="Qd3Dt6lI25NfpPpPpTcT-42" value="passes data to DB" style="" parent="3" vertex="1">
          <mxGeometry x="175" y="190" width="110" height="50" as="geometry" />
        </mxCell>
        <mxCell id="Qd3Dt6lI25NfpPpPpTcT-45" value="throws exception &#xa;for wrong data" style="" parent="3" vertex="1">
          <mxGeometry x="30.5" y="190" width="110" height="50" as="geometry" />
        </mxCell>
        <mxCell id="Qd3Dt6lI25NfpPpPpTcT-54" value="processes request" style="" parent="3" vertex="1">
          <mxGeometry x="25.75" y="293" width="110" height="50" as="geometry" />
        </mxCell>
        <mxCell id="Qd3Dt6lI25NfpPpPpTcT-83" style="edgeStyle=orthogonalEdgeStyle;rounded=0;orthogonalLoop=1;jettySize=auto;html=1;exitX=0.5;exitY=1;exitDx=0;exitDy=0;" parent="3" source="Qd3Dt6lI25NfpPpPpTcT-76" edge="1">
          <mxGeometry relative="1" as="geometry">
            <mxPoint x="-335" y="27.147952809053322" as="targetPoint" />
            <Array as="points">
              <mxPoint x="81" y="490" />
              <mxPoint x="-334" y="490" />
              <mxPoint x="-334" y="27" />
            </Array>
          </mxGeometry>
        </mxCell>
        <mxCell id="Qd3Dt6lI25NfpPpPpTcT-90" style="edgeStyle=orthogonalEdgeStyle;rounded=0;orthogonalLoop=1;jettySize=auto;html=1;exitX=0.75;exitY=1;exitDx=0;exitDy=0;" parent="3" source="Qd3Dt6lI25NfpPpPpTcT-76" edge="1">
          <mxGeometry relative="1" as="geometry">
            <mxPoint x="575" y="30" as="targetPoint" />
          </mxGeometry>
        </mxCell>
        <mxCell id="Qd3Dt6lI25NfpPpPpTcT-76" value="processes request" style="" parent="3" vertex="1">
          <mxGeometry x="25.75" y="390" width="110" height="50" as="geometry" />
        </mxCell>
        <mxCell id="4" value="DataBase" style="swimlane;whiteSpace=wrap" parent="1" vertex="1">
          <mxGeometry x="780" y="118" width="280" height="662" as="geometry" />
        </mxCell>
        <mxCell id="Qd3Dt6lI25NfpPpPpTcT-81" style="edgeStyle=orthogonalEdgeStyle;rounded=0;orthogonalLoop=1;jettySize=auto;html=1;exitX=0.5;exitY=1;exitDx=0;exitDy=0;entryX=0.5;entryY=0;entryDx=0;entryDy=0;" parent="4" source="33" target="Qd3Dt6lI25NfpPpPpTcT-80" edge="1">
          <mxGeometry relative="1" as="geometry" />
        </mxCell>
        <mxCell id="33" value="stores data" style="" parent="4" vertex="1">
          <mxGeometry x="85" y="42" width="110" height="50" as="geometry" />
        </mxCell>
        <mxCell id="Qd3Dt6lI25NfpPpPpTcT-57" value="fetches data" style="" parent="4" vertex="1">
          <mxGeometry x="90" y="192" width="110" height="50" as="geometry" />
        </mxCell>
        <mxCell id="Qd3Dt6lI25NfpPpPpTcT-80" value="cart repository" style="" parent="4" vertex="1">
          <mxGeometry x="85" y="122" width="110" height="50" as="geometry" />
        </mxCell>
        <mxCell id="20" value="" style="endArrow=open;strokeColor=#FF0000;endFill=1;rounded=0;entryX=0;entryY=0.75;entryDx=0;entryDy=0;" parent="1" source="10" target="18" edge="1">
          <mxGeometry relative="1" as="geometry">
            <mxPoint x="470" y="320" as="targetPoint" />
          </mxGeometry>
        </mxCell>
        <mxCell id="Qd3Dt6lI25NfpPpPpTcT-44" style="edgeStyle=orthogonalEdgeStyle;rounded=0;orthogonalLoop=1;jettySize=auto;html=1;exitX=1;exitY=0.5;exitDx=0;exitDy=0;entryX=0;entryY=0.25;entryDx=0;entryDy=0;" parent="1" source="Qd3Dt6lI25NfpPpPpTcT-42" target="33" edge="1">
          <mxGeometry relative="1" as="geometry" />
        </mxCell>
        <mxCell id="Qd3Dt6lI25NfpPpPpTcT-55" style="edgeStyle=orthogonalEdgeStyle;rounded=0;orthogonalLoop=1;jettySize=auto;html=1;exitX=1;exitY=0.5;exitDx=0;exitDy=0;entryX=0;entryY=0.75;entryDx=0;entryDy=0;" parent="1" source="Qd3Dt6lI25NfpPpPpTcT-50" target="Qd3Dt6lI25NfpPpPpTcT-54" edge="1">
          <mxGeometry relative="1" as="geometry" />
        </mxCell>
        <mxCell id="Qd3Dt6lI25NfpPpPpTcT-61" value="response" style="rounded=0;whiteSpace=wrap;html=1;" parent="1" vertex="1">
          <mxGeometry x="360" y="310" width="110" height="20" as="geometry" />
        </mxCell>
        <mxCell id="Qd3Dt6lI25NfpPpPpTcT-63" style="edgeStyle=orthogonalEdgeStyle;rounded=0;orthogonalLoop=1;jettySize=auto;html=1;exitX=1;exitY=0.5;exitDx=0;exitDy=0;entryX=0.5;entryY=1;entryDx=0;entryDy=0;" parent="1" source="Qd3Dt6lI25NfpPpPpTcT-54" target="Qd3Dt6lI25NfpPpPpTcT-57" edge="1">
          <mxGeometry relative="1" as="geometry" />
        </mxCell>
        <mxCell id="Qd3Dt6lI25NfpPpPpTcT-64" style="edgeStyle=orthogonalEdgeStyle;rounded=0;orthogonalLoop=1;jettySize=auto;html=1;exitX=0.75;exitY=1;exitDx=0;exitDy=0;entryX=0.25;entryY=1;entryDx=0;entryDy=0;" parent="1" source="Qd3Dt6lI25NfpPpPpTcT-57" target="Qd3Dt6lI25NfpPpPpTcT-54" edge="1">
          <mxGeometry relative="1" as="geometry" />
        </mxCell>
        <mxCell id="Qd3Dt6lI25NfpPpPpTcT-65" style="edgeStyle=orthogonalEdgeStyle;rounded=0;orthogonalLoop=1;jettySize=auto;html=1;exitX=0;exitY=0.25;exitDx=0;exitDy=0;entryX=1;entryY=0.5;entryDx=0;entryDy=0;" parent="1" source="Qd3Dt6lI25NfpPpPpTcT-54" target="Qd3Dt6lI25NfpPpPpTcT-50" edge="1">
          <mxGeometry relative="1" as="geometry">
            <Array as="points">
              <mxPoint x="373" y="425" />
              <mxPoint x="373" y="447" />
            </Array>
          </mxGeometry>
        </mxCell>
        <mxCell id="Qd3Dt6lI25NfpPpPpTcT-47" style="edgeStyle=orthogonalEdgeStyle;rounded=0;orthogonalLoop=1;jettySize=auto;html=1;exitX=0;exitY=0.5;exitDx=0;exitDy=0;entryX=1;entryY=0.75;entryDx=0;entryDy=0;" parent="1" source="Qd3Dt6lI25NfpPpPpTcT-45" target="10" edge="1">
          <mxGeometry relative="1" as="geometry">
            <mxPoint x="360" y="152" as="targetPoint" />
            <Array as="points">
              <mxPoint x="471" y="332" />
            </Array>
          </mxGeometry>
        </mxCell>
        <mxCell id="Qd3Dt6lI25NfpPpPpTcT-58" style="edgeStyle=orthogonalEdgeStyle;rounded=0;orthogonalLoop=1;jettySize=auto;html=1;exitX=0.5;exitY=0;exitDx=0;exitDy=0;entryX=1;entryY=0.25;entryDx=0;entryDy=0;" parent="1" source="Qd3Dt6lI25NfpPpPpTcT-42" target="10" edge="1">
          <mxGeometry relative="1" as="geometry">
            <mxPoint x="360" y="229.14797076056985" as="targetPoint" />
            <Array as="points">
              <mxPoint x="675" y="290" />
              <mxPoint x="453" y="290" />
              <mxPoint x="453" y="310" />
              <mxPoint x="285" y="310" />
            </Array>
          </mxGeometry>
        </mxCell>
        <mxCell id="Qd3Dt6lI25NfpPpPpTcT-79" style="edgeStyle=orthogonalEdgeStyle;rounded=0;orthogonalLoop=1;jettySize=auto;html=1;exitX=1;exitY=0.5;exitDx=0;exitDy=0;entryX=1;entryY=0.25;entryDx=0;entryDy=0;" parent="1" source="Qd3Dt6lI25NfpPpPpTcT-76" target="33" edge="1">
          <mxGeometry relative="1" as="geometry" />
        </mxCell>
        <mxCell id="Qd3Dt6lI25NfpPpPpTcT-89" value="" style="edgeStyle=orthogonalEdgeStyle;rounded=0;orthogonalLoop=1;jettySize=auto;html=1;entryX=0.5;entryY=1;entryDx=0;entryDy=0;" parent="1" source="Qd3Dt6lI25NfpPpPpTcT-85" target="Qd3Dt6lI25NfpPpPpTcT-76" edge="1">
          <mxGeometry relative="1" as="geometry">
            <mxPoint x="480" y="705" as="targetPoint" />
          </mxGeometry>
        </mxCell>
        <mxCell id="Qd3Dt6lI25NfpPpPpTcT-91" style="edgeStyle=orthogonalEdgeStyle;rounded=0;orthogonalLoop=1;jettySize=auto;html=1;exitX=0.25;exitY=1;exitDx=0;exitDy=0;entryX=1;entryY=0.25;entryDx=0;entryDy=0;" parent="1" source="Qd3Dt6lI25NfpPpPpTcT-76" target="Qd3Dt6lI25NfpPpPpTcT-85" edge="1">
          <mxGeometry relative="1" as="geometry" />
        </mxCell>
      </root>
    </mxGraphModel>
  </diagram>
</mxfile>
